<svg display="block" preserveAspectRatio="xMidYMid meet" viewBox="0 0 1224 1024" xmlns="http://www.w3.org/2000/svg"><g fill="#ffffff"><path d="m538.357 132.43c1.173-.062 2.346-.117 3.52-.163 38.42-1.521 78.325-.014 116.834-.019 9.412-.002 25.546.649 32.514 7.446 8.638 8.426 12.434 27.648 3.19 37.028-14.876 13.162-48.067 11.216-66.193 11.301-.879 54.35-.171 109.867-.492 164.412 56.11 14.484 104.993 48.366 124.827 104.789 5.023 14.652 8.086 29.903 9.109 45.358 2.585 36.446.62 85.065.645 122.882l.105 83.292c.001 16.023.154 32.024-.436 47.963-.548 22.162-21.813 34.419-41.41 24.116-4.545-1.951-11.986-9.361-12.446-14.805-1.4-16.569-.862-37.065-.884-53.558l-.09-118.834c.025-33.431 2.463-72.398-3.089-105.158-4.887-28.832-30.561-58.33-56.433-71.872-1.273-.509-2.55-1.007-3.832-1.492-64.687-24.521-130.01 4.129-147.821 71.936-6.932 26.389-4.307 72.159-4.268 100.776l.291 123.833c.024 11.463.901 46.084-2.652 55.347-2.637 6.884-7.969 12.395-14.764 15.256-14.16 5.98-33.864-3.426-36.53-16.217-3.829-18.37-1.937-50.534-1.947-69.018l-.38-94.449.034-57.676c-.076-36.243.283-64.466 16.291-98.357 13.177-27.896 35.899-55.921 62.67-71.773 15.383-9.109 37.392-16.502 54.149-22.816 2.268-15.831 1.023-50.646.775-68.108l-.691-95.385c-16.97.257-53.882.527-67.189-11.417-11.252-10.1-4.574-30.378 5.173-40.298 10.191-3.714 20.645-3.724 31.42-4.32z"></path><path d="m590.855 515.214c23.007-2.61 51.696 8.916 58.009 33.053 6.665 25.478 4.442 58.755 4.37 85.559l-.072 82.244c.387 44.876.41 89.754.07 134.631-.047 28.18 3.013 79.028-6.902 105.821-4.38 11.834-24.877 22.334-37.367 25.99-13.691 1.475-23.775-.549-35.968-6.748-34.017-17.295-27.065-61.856-27.228-94.352-.189-37.921-.164-75.842.074-113.763-.431-43.513-.429-87.029.008-130.542.015-9.126-.086-18.342.001-27.476.406-42.732-5.671-80.208 45.005-94.417z"></path><path d="m135.842 636.244c41.997-1.751 90.081.502 132.699-.144 20.164-.306 76.951-1.094 93.507 1.825 18.168 13.268 20.261 38.707-3.007 47.066-8.222 1.451-24.024 1.106-32.883 1.103l-52.296-.04-76.605-.008c-16.29.081-31.944.15-48.811.043-14.312 1.67-29.9-10.124-29.738-25.108.113-10.387 6.508-21.778 17.134-24.737z"></path><path d="m840.197 636.337c25.755-1.399 52.919-.06 78.909-.251 44.189-.324 88.534-.259 132.724.152 3.1.029 13.79.783 16.1 2.314 17.81 11.807 16.18 40.333-6.2 46.334-21.4 1.772-213.035 2.708-221.824-.228-6.062-2.025-11.501-7.254-14.321-12.916-2.451-4.922-3.2-10.387-1.438-15.655 2.41-7.206 9.077-16.355 16.05-19.75z"></path><path d="m317.155 130.438c21.14-1.024 45.056-.074 66.615-.423 17.434.351 35.79-1.13 53.036 1.123 22.118 2.89 28.779 35.839 14.168 50.351-9.957 9.889-20.139 9.476-32.884 9.562l-72.588.352c-14.135.059-32.413 1.06-45.47-1.314-24.162-4.392-34.317-31.384-16.072-49.212 10.925-10.676 19.453-9.807 33.195-10.439z"></path><path d="m759.943 130.294c21.371-1.059 44.443-.019 65.917-.244 16.695-.175 36.999-.424 53.477 1.25 30.997 3.149 36.038 52.532 1.856 59.634-25.532.485-51.07.601-76.606.348-14.099-.035-32.053.753-45.694-1.092-34.054-4.605-33.67-55.126 1.05-59.896z"></path><path d="m235.627 735.437c19.472-1.215 42.8-.27 62.716-.747 19.594.146 39.491-.968 58.989 1.037 18.824 1.935 25.308 25.776 13.208 38.823-7.761 8.366-16.759 7.588-27.204 7.922-28.404.896-57.377-.378-85.863.311-13.718.332-36.064 1.533-46.967-7.231-4.932-3.915-8.009-9.709-8.49-15.988-1.912-23.926 15.629-23.033 33.611-24.127z"></path><path d="m860.262 735.441c37.856-2.412 81.307.023 119.429 1.019 11.017.288 19.71 6.236 19.72 18.176.018 23.094-16.12 26.88-35.189 27.415-21.841-.079-43.683.076-65.521.465-17.731.371-37.551 1.576-54.482-.363-17.36-1.987-27.673-25.385-13.93-38.134 9.931-9.213 17.703-8.085 29.973-8.578z"></path></g></svg>